Coordinates
version=1
nRows=42
nColumns=38
inDegrees=no

Units are S.I. units (second, meters, Newtons, ...)
If the header above contains a line with 'inDegrees', this indicates whether rotational values are in degrees (yes) or radians (no).

endheader
time	pelvis_tilt	pelvis_list	pelvis_rotation	pelvis_tx	pelvis_ty	pelvis_tz	hip_flexion_r	hip_adduction_r	hip_rotation_r	knee_angle_r	ankle_angle_r	subtalar_angle_r	mtp_angle_r	hip_flexion_l	hip_adduction_l	hip_rotation_l	knee_angle_l	ankle_angle_l	subtalar_angle_l	mtp_angle_l	lumbar_extension	lumbar_bending	lumbar_rotation	arm_flex_r	arm_add_r	arm_rot_r	elbow_flex_r	pro_sup_r	wrist_flex_r	wrist_dev_r	arm_flex_l	arm_add_l	arm_rot_l	elbow_flex_l	pro_sup_l	wrist_flex_l	wrist_dev_l
1.02	-2.7274	1.34926	-1.90771	0.989291	0.545439	0.918986	0.207201	-0.240064	-0.0705607	1.52305	-0.287614	0	0	0.128254	0.112946	-0.316755	0.40195	0.0223102	0	0	-0.302554	-0.125645	0.0854367	0.314633	-0.433241	-0.0937019	1.56902	0	0	0	0.427472	-0.564261	0.10341	1.54028	0.910452	0	0
1.03	-2.72679	1.34421	-1.90343	0.986174	0.55553	0.921257	0.227937	-0.247105	-0.0217892	1.52864	-0.170723	0	0	0.103308	0.122218	-0.307005	0.38732	0.0228688	0	0	-0.307603	-0.121996	0.0776205	0.314845	-0.435104	-0.0966081	1.57247	0	0	0	0.423486	-0.562006	0.100429	1.54321	0.908825	0	0
1.04	-2.74207	1.33907	-1.88443	0.984262	0.565606	0.923825	0.255417	-0.244122	-0.00661546	1.55402	-0.138018	0	0	0.0751352	0.124374	-0.302503	0.371377	0.0269294	0	0	-0.313492	-0.117432	0.0719195	0.314508	-0.433825	-0.102056	1.5734	0	0	0	0.422029	-0.562789	0.10053	1.54618	0.901968	0	0
1.05	-2.75699	1.33429	-1.86528	0.982322	0.575633	0.926416	0.280354	-0.240445	0.00542042	1.57134	-0.108534	0	0	0.0464278	0.125954	-0.298362	0.354062	0.0315671	0	0	-0.318304	-0.112833	0.0660606	0.313771	-0.432384	-0.107305	1.57303	0	0	0	0.421498	-0.563771	0.10241	1.5487	0.898615	0	0
1.06	-2.77204	1.32978	-1.84595	0.980415	0.58561	0.929037	0.3031	-0.235872	0.0147109	1.58196	-0.0793287	0	0	0.0179307	0.126925	-0.293545	0.336253	0.0354961	0	0	-0.322343	-0.10813	0.0602721	0.313073	-0.431167	-0.111758	1.57191	0	0	0	0.421508	-0.565136	0.104074	1.55087	0.900555	0	0
1.07	-2.77743	1.32151	-1.83338	0.977672	0.595978	0.931964	0.323897	-0.249112	-0.0215739	1.58998	-0.0663069	0	0	-0.0170056	0.13354	-0.281413	0.312434	0.0355461	0	0	-0.328308	-0.105037	0.0513836	0.311917	-0.431316	-0.1158	1.57116	0	0	0	0.421508	-0.566221	0.107616	1.55244	0.901313	0	0
1.08	-2.80503	1.32136	-1.80363	0.976506	0.605376	0.934367	0.341369	-0.225487	0.0241523	1.58202	-0.0248775	0	0	-0.0372269	0.127162	-0.278281	0.301655	0.0409262	0	0	-0.329194	-0.0969718	0.0493965	0.312006	-0.430818	-0.119804	1.56798	0	0	0	0.424976	-0.567217	0.112883	1.55228	0.899946	0	0
1.09	-2.81727	1.31595	-1.78405	0.97371	0.615656	0.937077	0.359571	-0.234482	-0.012973	1.57623	-0.0150767	0	0	-0.0672757	0.129661	-0.264538	0.282275	0.042	0	0	-0.332322	-0.0905102	0.0417057	0.310398	-0.433562	-0.120906	1.5674	0	0	0	0.426052	-0.566905	0.118332	1.55202	0.896419	0	0
1.1	-2.83908	1.31445	-1.7566	0.971596	0.625348	0.939444	0.375258	-0.226177	-0.0104244	1.56054	0.00620196	0	0	-0.0896618	0.126096	-0.255064	0.269441	0.0451146	0	0	-0.333345	-0.0815622	0.0364951	0.310161	-0.436857	-0.120538	1.56668	0	0	0	0.428817	-0.56648	0.123539	1.55114	0.89431	0	0
1.11	-2.86051	1.31347	-1.72867	0.969403	0.634885	0.941648	0.389728	-0.218565	-0.00979261	1.54016	0.0259374	0	0	-0.111102	0.122322	-0.244863	0.255987	0.0469045	0	0	-0.334277	-0.0720994	0.0306761	0.310268	-0.44086	-0.120338	1.56642	0	0	0	0.432252	-0.56568	0.127744	1.55003	0.894552	0	0
1.12	-2.88237	1.31379	-1.69936	0.967143	0.644277	0.943542	0.404032	-0.211792	-0.0120452	1.51556	0.0431037	0	0	-0.130211	0.117585	-0.236185	0.243002	0.0492916	0	0	-0.334308	-0.0619375	0.0241353	0.310387	-0.445351	-0.119596	1.56691	0	0	0	0.435844	-0.564456	0.130617	1.54888	0.899162	0	0
1.13	-2.90375	1.31445	-1.6696	0.964798	0.653572	0.945228	0.416815	-0.207137	-0.0190367	1.48633	0.0579738	0	0	-0.148692	0.112456	-0.226646	0.229771	0.0519643	0	0	-0.334369	-0.0515816	0.0164611	0.311047	-0.450439	-0.118207	1.56771	0	0	0	0.438731	-0.563759	0.134283	1.54975	0.896917	0	0
1.14	-2.9221	1.31524	-1.64254	0.962423	0.662848	0.946732	0.427772	-0.204766	-0.029449	1.45264	0.0702578	0	0	-0.166555	0.1076	-0.216838	0.217733	0.0545287	0	0	-0.334405	-0.0420398	0.00819483	0.311724	-0.455398	-0.11669	1.5668	0	0	0	0.441816	-0.563509	0.138184	1.55134	0.890003	0	0
1.15	-2.937	1.31598	-1.61878	0.960043	0.672141	0.948057	0.436638	-0.204653	-0.0425365	1.41468	0.0794474	0	0	-0.184107	0.103317	-0.207872	0.206419	0.0567048	0	0	-0.334129	-0.0335171	-0.000687268	0.31321	-0.459521	-0.114123	1.56988	0	0	0	0.444877	-0.563034	0.140455	1.55231	0.889774	0	0
1.16	-2.94908	1.3164	-1.59815	0.957671	0.681461	0.949147	0.443079	-0.206672	-0.0582104	1.37298	0.0863895	0	0	-0.202082	0.0997595	-0.200308	0.194165	0.0589922	0	0	-0.334186	-0.0263227	-0.00827756	0.31325	-0.463779	-0.11409	1.57213	0	0	0	0.449687	-0.561723	0.14385	1.55293	0.890763	0	0
1.17	-2.9597	1.31624	-1.58006	0.955423	0.690823	0.950005	0.44697	-0.20989	-0.0760485	1.32805	0.0918726	0	0	-0.220403	0.0963414	-0.193694	0.182543	0.0615746	0	0	-0.334718	-0.0205313	-0.0132993	0.31138	-0.468217	-0.117902	1.57525	0	0	0	0.457126	-0.559916	0.150166	1.55272	0.892731	0	0
1.18	-2.98152	1.31694	-1.55322	0.952186	0.700187	0.95041	0.450866	-0.222383	-0.0834009	1.27891	0.103608	0	0	-0.236836	0.0935607	-0.183588	0.173257	0.0622349	0	0	-0.333845	-0.00984529	-0.0174835	0.31178	-0.472488	-0.119421	1.57779	0	0	0	0.461689	-0.558038	0.154102	1.55344	0.894199	0	0
1.19	-2.98907	1.31802	-1.54103	0.950354	0.709673	0.950667	0.452437	-0.223239	-0.0999755	1.22827	0.107064	0	0	-0.25282	0.0912474	-0.1763	0.163458	0.065791	0	0	-0.332693	-0.00506928	-0.0225985	0.312807	-0.475155	-0.119901	1.57976	0	0	0	0.465597	-0.55721	0.155217	1.55508	0.89451	0	0
1.2	-2.99529	1.31931	-1.53106	0.948672	0.719224	0.950667	0.451739	-0.223213	-0.117936	1.17422	0.109415	0	0	-0.26789	0.0892467	-0.169311	0.154934	0.0709274	0	0	-0.331062	-0.000962702	-0.0269679	0.313655	-0.477734	-0.119795	1.5821	0	0	0	0.469076	-0.556659	0.15623	1.55663	0.894756	0	0
1.21	-2.99897	1.32086	-1.52456	0.947051	0.72887	0.950412	0.448744	-0.222713	-0.137462	1.11635	0.111387	0	0	-0.282085	0.0878925	-0.162832	0.147721	0.0770255	0	0	-0.329017	0.00270518	-0.0318583	0.316264	-0.479647	-0.117865	1.58469	0	0	0	0.47029	-0.556916	0.155104	1.55865	0.893015	0	0
1.22	-3.00187	1.32175	-1.51898	0.946054	0.738458	0.950088	0.441563	-0.22172	-0.160311	1.0536	0.11333	0	0	-0.296884	0.0865303	-0.155223	0.140704	0.0828845	0	0	-0.327651	0.00614869	-0.0376245	0.320579	-0.481029	-0.114823	1.58499	0	0	0	0.470407	-0.557417	0.151588	1.56042	0.897343	0	0
1.23	-3.00274	1.32374	-1.51666	0.944831	0.748136	0.949342	0.433465	-0.219613	-0.183816	0.986949	0.117355	0	0	-0.308671	0.0855017	-0.150183	0.136923	0.0903409	0	0	-0.32514	0.00795419	-0.0399637	0.321725	-0.483149	-0.11536	1.58781	0	0	0	0.473927	-0.556166	0.151368	1.56002	0.900144	0	0
1.24	-3.00321	1.32592	-1.51607	0.943826	0.757929	0.948318	0.423268	-0.21548	-0.207802	0.915993	0.122829	0	0	-0.319947	0.084679	-0.14735	0.134302	0.0989208	0	0	-0.322389	0.00829154	-0.0390045	0.320156	-0.485849	-0.119693	1.59133	0	0	0	0.480437	-0.553551	0.153957	1.55829	0.902201	0	0
1.25	-2.98636	1.3299	-1.53105	0.943896	0.767907	0.946897	0.415399	-0.200396	-0.229597	0.844824	0.123323	0	0	-0.329345	0.0834361	-0.150827	0.131711	0.110593	0	0	-0.317921	0.00245268	-0.0405463	0.31879	-0.486567	-0.12175	1.59391	0	0	0	0.485428	-0.553508	0.156139	1.55798	0.900882	0	0
1.26	-2.97842	1.33506	-1.54094	0.943452	0.778029	0.94513	0.406381	-0.195469	-0.250043	0.7707	0.129812	0	0	-0.337564	0.0846301	-0.151186	0.129931	0.120556	0	0	-0.311583	0.000327763	-0.0402803	0.319365	-0.486913	-0.121739	1.59619	0	0	0	0.487183	-0.553923	0.156083	1.55861	0.900603	0	0
1.27	-2.96848	1.34095	-1.55321	0.943218	0.78821	0.943132	0.396002	-0.188805	-0.269969	0.692829	0.134348	0	0	-0.344496	0.0860063	-0.152776	0.129402	0.131513	0	0	-0.304441	-0.00218525	-0.0401742	0.321056	-0.486515	-0.121253	1.59732	0	0	0	0.488249	-0.554985	0.155027	1.55896	0.90041	0	0
1.28	-2.96136	1.34682	-1.56263	0.943134	0.798404	0.94104	0.381682	-0.177977	-0.286071	0.607954	0.135028	0	0	-0.351166	0.0860225	-0.155649	0.129349	0.143083	0	0	-0.297321	-0.00398215	-0.0399012	0.323521	-0.485727	-0.120227	1.59837	0	0	0	0.489376	-0.555959	0.153907	1.5585	0.901686	0	0
1.29	-2.94712	1.35512	-1.58048	0.943176	0.808736	0.938485	0.369981	-0.166241	-0.294748	0.52577	0.135093	0	0	-0.355133	0.087885	-0.159536	0.12948	0.154368	0	0	-0.287301	-0.00865399	-0.0355312	0.321188	-0.485427	-0.124846	1.59869	0	0	0	0.494503	-0.555511	0.158917	1.55577	0.902144	0	0
1.3	-2.93389	1.3639	-1.59774	0.943373	0.819296	0.935843	0.35536	-0.151185	-0.297448	0.440997	0.132243	0	0	-0.358338	0.0890535	-0.165975	0.130361	0.165839	0	0	-0.276129	-0.0124574	-0.0318773	0.320487	-0.483731	-0.127267	1.59858	0	0	0	0.497172	-0.555877	0.162051	1.55316	0.901198	0	0
1.31	-2.92513	1.37173	-1.60966	0.943631	0.830063	0.933285	0.33462	-0.132502	-0.293747	0.352118	0.125246	0	0	-0.362023	0.0882097	-0.17311	0.132943	0.178191	0	0	-0.265472	-0.0141163	-0.0309103	0.322775	-0.481049	-0.125583	1.59674	0	0	0	0.496492	-0.557613	0.162154	1.55138	0.895674	0	0
1.32	-2.92369	1.37758	-1.61325	0.94377	0.841106	0.930867	0.306084	-0.110752	-0.282296	0.259321	0.110955	0	0	-0.368252	0.0853808	-0.179085	0.135748	0.19061	0	0	-0.256409	-0.0141798	-0.0294189	0.323539	-0.479188	-0.126101	1.59512	0	0	0	0.496998	-0.558084	0.163994	1.54875	0.89139	0	0
1.33	-2.91979	1.38356	-1.61803	0.943683	0.852526	0.92831	0.278296	-0.0916865	-0.271614	0.17713	0.092684	0	0	-0.374572	0.0827327	-0.183067	0.1389	0.202595	0	0	-0.246153	-0.0144985	-0.0281465	0.32208	-0.478156	-0.127907	1.59434	0	0	0	0.497094	-0.557396	0.166545	1.54527	0.888766	0	0
1.34	-2.91399	1.38926	-1.62387	0.943408	0.864288	0.925672	0.254252	-0.0762821	-0.264331	0.113387	0.0713962	0	0	-0.381379	0.0802942	-0.185862	0.142388	0.21408	0	0	-0.235305	-0.014656	-0.0276919	0.319999	-0.477599	-0.129171	1.59405	0	0	0	0.495888	-0.555822	0.167761	1.54172	0.888143	0	0
1.35	-2.90787	1.39474	-1.62889	0.942898	0.87632	0.923024	0.237301	-0.0648845	-0.267086	0.0754804	0.0546083	0	0	-0.38772	0.0775197	-0.187282	0.14786	0.225393	0	0	-0.224065	-0.0142253	-0.0285259	0.317489	-0.47753	-0.130529	1.59385	0	0	0	0.493163	-0.553446	0.167933	1.53798	0.888355	0	0
1.36	-2.90535	1.39877	-1.62919	0.942198	0.888602	0.920546	0.224906	-0.055504	-0.279085	0.0614031	0.04608	0	0	-0.395033	0.0734863	-0.187941	0.155216	0.23622	0	0	-0.214008	-0.0128021	-0.0309882	0.315786	-0.477648	-0.130797	1.59351	0	0	0	0.488932	-0.550869	0.167315	1.53406	0.888182	0	0
1.37	-2.90941	1.40082	-1.6217	0.941303	0.901016	0.918339	0.214057	-0.0467706	-0.295128	0.0651768	0.0451899	0	0	-0.403847	0.0677636	-0.188099	0.163914	0.245955	0	0	-0.206438	-0.00994047	-0.0348952	0.314336	-0.47826	-0.130454	1.59411	0	0	0	0.48357	-0.548082	0.165639	1.53029	0.886883	0	0
1.38	-2.92204	1.40108	-1.60416	0.940275	0.913478	0.916445	0.203393	-0.0377772	-0.31244	0.0797396	0.0534972	0	0	-0.412734	0.0593354	-0.190354	0.176379	0.256208	0	0	-0.202216	-0.00499779	-0.0427401	0.315877	-0.478875	-0.126222	1.59544	0	0	0	0.468756	-0.538333	0.0904958	1.54674	0.55016	0	0
1.39	-2.94309	1.39912	-1.57712	0.939207	0.926112	0.914955	0.185725	-0.0255847	-0.319557	0.0820844	0.0605402	0	0	-0.423834	0.048762	-0.191643	0.188835	0.263168	0	0	-0.199633	0.000888723	-0.048232	0.313393	-0.480344	-0.127892	1.59728	0	0	0	0.470431	-0.543685	0.155018	1.53231	0.839436	0	0
1.4	-2.97393	1.3964	-1.53988	0.938236	0.938843	0.913702	0.16584	-0.0107666	-0.320779	0.0713097	0.0566475	0	0	-0.433422	0.0349141	-0.195573	0.205758	0.270854	0	0	-0.198625	0.00899936	-0.0539965	0.310535	-0.481769	-0.130909	1.6006	0	0	0	0.467202	-0.540804	0.152009	1.52951	0.858318	0	0
1.41	-3.01398	1.39254	-1.49379	0.937391	0.951431	0.912829	0.143481	0.00548382	-0.307899	0.0465489	0.0222194	0	0	-0.440948	0.018208	-0.202163	0.227765	0.277675	0	0	-0.199817	0.0196302	-0.0594756	0.308931	-0.483354	-0.13293	1.60419	0	0	0	0.462671	-0.536894	0.146849	1.52762	0.873864	0	0
1.42	-3.05941	1.38712	-1.44357	0.936755	0.963857	0.912437	0.120682	0.0205575	-0.285576	0.0195313	-0.0400856	0	0	-0.445648	-0.000997155	-0.214239	0.25708	0.283309	0	0	-0.203605	0.0320615	-0.063485	0.308188	-0.4853	-0.133714	1.6121	0	0	0	0.457758	-0.532423	0.141123	1.52596	0.895405	0	0
1.43	-3.08952	1.38395	-1.41127	0.936407	0.976119	0.912159	0.11681	0.0254234	-0.282367	0.0312192	-0.0814778	0	0	-0.445628	-0.0164072	-0.223807	0.289233	0.282932	0	0	-0.205999	0.0408528	-0.0650401	0.307892	-0.486229	-0.136278	1.6103	0	0	0	0.452768	-0.529017	0.137279	1.52712	0.893114	0	0
